<?xml version="1.0" encoding="UTF-8"?> <svg xmlns="http://www.w3.org/2000/svg" width="632" height="75" viewBox="0 0 632 75" fill="none"><path d="M43.7 20.6C42.2333 18.7333 40.3 17.2667 37.9 16.2C35.5667 15.0667 33.3 14.5 31.1 14.5C29.9667 14.5 28.8 14.6 27.6 14.8C26.4667 15 25.4333 15.4 24.5 16C23.5667 16.5333 22.7667 17.2667 22.1 18.2C21.5 19.0667 21.2 20.2 21.2 21.6C21.2 22.8 21.4333 23.8 21.9 24.6C22.4333 25.4 23.1667 26.1 24.1 26.7C25.1 27.3 26.2667 27.8667 27.6 28.4C28.9333 28.8667 30.4333 29.3667 32.1 29.9C34.5 30.7 37 31.6 39.6 32.6C42.2 33.5333 44.5667 34.8 46.7 36.4C48.8333 38 50.6 40 52 42.4C53.4 44.7333 54.1 47.6667 54.1 51.2C54.1 55.2667 53.3333 58.8 51.8 61.8C50.3333 64.7333 48.3333 67.1667 45.8 69.1C43.2667 71.0333 40.3667 72.4667 37.1 73.4C33.8333 74.3333 30.4667 74.8 27 74.8C21.9333 74.8 17.0333 73.9333 12.3 72.2C7.56667 70.4 3.63333 67.8667 0.5 64.6L11.7 53.2C13.4333 55.3333 15.7 57.1333 18.5 58.6C21.3667 60 24.2 60.7 27 60.7C28.2667 60.7 29.5 60.5667 30.7 60.3C31.9 60.0333 32.9333 59.6 33.8 59C34.7333 58.4 35.4667 57.6 36 56.6C36.5333 55.6 36.8 54.4 36.8 53C36.8 51.6667 36.4667 50.5333 35.8 49.6C35.1333 48.6667 34.1667 47.8333 32.9 47.1C31.7 46.3 30.1667 45.6 28.3 45C26.5 44.3333 24.4333 43.6333 22.1 42.9C19.8333 42.1667 17.6 41.3 15.4 40.3C13.2667 39.3 11.3333 38.0333 9.6 36.5C7.93333 34.9 6.56667 33 5.5 30.8C4.5 28.5333 4 25.8 4 22.6C4 18.6667 4.8 15.3 6.4 12.5C8 9.7 10.1 7.4 12.7 5.6C15.3 3.8 18.2333 2.5 21.5 1.69999C24.7667 0.833331 28.0667 0.399999 31.4 0.399999C35.4 0.399999 39.4667 1.13333 43.6 2.59999C47.8 4.06666 51.4667 6.23333 54.6 9.09999L43.7 20.6ZM119.082 24C119.082 28.1333 118.315 31.6333 116.782 34.5C115.249 37.3 113.182 39.5667 110.582 41.3C107.982 43.0333 104.982 44.3 101.582 45.1C98.182 45.9 94.6487 46.3 90.982 46.3H82.482V73H65.382V2.2H91.382C95.2487 2.2 98.8487 2.6 102.182 3.4C105.582 4.13333 108.515 5.36666 110.982 7.1C113.515 8.76667 115.482 11 116.882 13.8C118.349 16.5333 119.082 19.9333 119.082 24ZM101.982 24.1C101.982 22.4333 101.649 21.0667 100.982 20C100.315 18.9333 99.4154 18.1 98.282 17.5C97.1487 16.9 95.8487 16.5 94.382 16.3C92.982 16.1 91.5154 16 89.982 16H82.482V32.7H89.682C91.282 32.7 92.8154 32.5667 94.282 32.3C95.7487 32.0333 97.0487 31.5667 98.182 30.9C99.382 30.2333 100.315 29.3667 100.982 28.3C101.649 27.1667 101.982 25.7667 101.982 24.1ZM171.39 73L165.89 59.1H138.49L133.29 73H114.69L144.39 2.2H160.99L190.39 73H171.39ZM152.39 21.1L143.39 45.4H161.19L152.39 21.1ZM256.784 63.2C253.65 66.8 249.784 69.6667 245.184 71.8C240.584 73.8667 235.284 74.9 229.284 74.9C223.817 74.9 218.75 74 214.084 72.2C209.484 70.4 205.484 67.8667 202.084 64.6C198.684 61.2667 196.017 57.3 194.084 52.7C192.15 48.1 191.184 43.0333 191.184 37.5C191.184 31.8333 192.15 26.7 194.084 22.1C196.084 17.5 198.817 13.6 202.284 10.4C205.75 7.13333 209.817 4.63333 214.484 2.9C219.15 1.16666 224.184 0.299994 229.584 0.299994C234.584 0.299994 239.484 1.19999 244.284 3C249.15 4.73333 253.084 7.3 256.084 10.7L244.484 22.3C242.884 20.1 240.784 18.4667 238.184 17.4C235.584 16.3333 232.917 15.8 230.184 15.8C227.184 15.8 224.417 16.3667 221.884 17.5C219.417 18.5667 217.284 20.0667 215.484 22C213.684 23.9333 212.284 26.2333 211.284 28.9C210.284 31.5 209.784 34.3667 209.784 37.5C209.784 40.7 210.284 43.6333 211.284 46.3C212.284 48.9667 213.65 51.2667 215.384 53.2C217.184 55.0667 219.317 56.5333 221.784 57.6C224.25 58.6667 226.95 59.2 229.884 59.2C233.284 59.2 236.25 58.5333 238.784 57.2C241.317 55.8667 243.35 54.1333 244.884 52L256.784 63.2ZM264.113 73V2.2H311.713V16.7H280.613V30H310.013V43.7H280.613V58.4H313.513V73H264.113ZM355.155 16.8V73H338.055V16.8H318.055V2.2H375.155V16.8H355.155ZM427.66 73V43.4H400.06V73H382.96V2.2H400.06V29H427.66V2.2H444.76V73H427.66ZM477.127 64.2C477.127 67 476.127 69.3333 474.127 71.2C472.194 73.0667 469.861 74 467.127 74C465.727 74 464.394 73.7333 463.127 73.2C461.927 72.7333 460.861 72.0667 459.927 71.2C458.994 70.3333 458.261 69.3333 457.727 68.2C457.194 67 456.927 65.7 456.927 64.3C456.927 62.9667 457.194 61.7 457.727 60.5C458.261 59.3 458.994 58.2667 459.927 57.4C460.861 56.4667 461.927 55.7333 463.127 55.2C464.394 54.6667 465.727 54.4 467.127 54.4C469.861 54.4 472.194 55.3333 474.127 57.2C476.127 59.0667 477.127 61.4 477.127 64.2ZM551.608 63.2C548.474 66.8 544.608 69.6667 540.008 71.8C535.408 73.8667 530.108 74.9 524.108 74.9C518.641 74.9 513.574 74 508.908 72.2C504.308 70.4 500.308 67.8667 496.908 64.6C493.508 61.2667 490.841 57.3 488.908 52.7C486.974 48.1 486.008 43.0333 486.008 37.5C486.008 31.8333 486.974 26.7 488.908 22.1C490.908 17.5 493.641 13.6 497.108 10.4C500.574 7.13333 504.641 4.63333 509.308 2.9C513.974 1.16666 519.008 0.299994 524.408 0.299994C529.408 0.299994 534.308 1.19999 539.108 3C543.974 4.73333 547.908 7.3 550.908 10.7L539.308 22.3C537.708 20.1 535.608 18.4667 533.008 17.4C530.408 16.3333 527.741 15.8 525.008 15.8C522.008 15.8 519.241 16.3667 516.708 17.5C514.241 18.5667 512.108 20.0667 510.308 22C508.508 23.9333 507.108 26.2333 506.108 28.9C505.108 31.5 504.608 34.3667 504.608 37.5C504.608 40.7 505.108 43.6333 506.108 46.3C507.108 48.9667 508.474 51.2667 510.208 53.2C512.008 55.0667 514.141 56.5333 516.608 57.6C519.074 58.6667 521.774 59.2 524.708 59.2C528.108 59.2 531.074 58.5333 533.608 57.2C536.141 55.8667 538.174 54.1333 539.708 52L551.608 63.2ZM631.565 37.3C631.565 42.9 630.598 48.0333 628.665 52.7C626.732 57.3 624.032 61.2667 620.565 64.6C617.165 67.8667 613.098 70.4 608.365 72.2C603.632 74 598.498 74.9 592.965 74.9C587.432 74.9 582.298 74 577.565 72.2C572.898 70.4 568.832 67.8667 565.365 64.6C561.965 61.2667 559.298 57.3 557.365 52.7C555.432 48.0333 554.465 42.9 554.465 37.3C554.465 31.6333 555.432 26.5333 557.365 22C559.298 17.4 561.965 13.5 565.365 10.3C568.832 7.1 572.898 4.63333 577.565 2.9C582.298 1.16666 587.432 0.299994 592.965 0.299994C598.498 0.299994 603.632 1.16666 608.365 2.9C613.098 4.63333 617.165 7.1 620.565 10.3C624.032 13.5 626.732 17.4 628.665 22C630.598 26.5333 631.565 31.6333 631.565 37.3ZM613.265 37.3C613.265 34.2333 612.765 31.3667 611.765 28.7C610.765 26.0333 609.365 23.7667 607.565 21.9C605.832 19.9667 603.698 18.4667 601.165 17.4C598.698 16.2667 595.965 15.7 592.965 15.7C589.965 15.7 587.232 16.2667 584.765 17.4C582.298 18.4667 580.165 19.9667 578.365 21.9C576.565 23.7667 575.165 26.0333 574.165 28.7C573.232 31.3667 572.765 34.2333 572.765 37.3C572.765 40.5 573.265 43.4667 574.265 46.2C575.265 48.8667 576.632 51.1667 578.365 53.1C580.165 55.0333 582.298 56.5667 584.765 57.7C587.232 58.7667 589.965 59.3 592.965 59.3C595.965 59.3 598.698 58.7667 601.165 57.7C603.632 56.5667 605.765 55.0333 607.565 53.1C609.365 51.1667 610.765 48.8667 611.765 46.2C612.765 43.4667 613.265 40.5 613.265 37.3Z" fill="#ffffff"></path></svg>
